<?xml version="1.0" encoding="UTF-8"?>
<svg xmlns="http://www.w3.org/2000/svg" xmlns:xlink="http://www.w3.org/1999/xlink" width="48pt" height="48pt" viewBox="0 0 48 48" version="1.1">
<g id="surface1">
<path style=" stroke:none;fill-rule:nonzero;fill:#000000;fill-opacity:1;" d="M 0 8 L 0 36 L 2 36 C 17.820313 36 22 38.617188 22 40 L 26 40 C 26 38.617188 30.179688 36 46 36 L 48 36 L 48 8 L 46 8 C 34.445313 8 27.234375 9.273438 24 11.9375 C 20.765625 9.273438 13.554688 8 2 8 Z M 4 12 C 18.179688 12.210938 22 14.679688 22 16 L 26 16 C 26 14.679688 29.820313 12.210938 44 12 L 44 32 C 33.609375 32.140625 27.046875 33.429688 24 35.9375 C 20.953125 33.429688 14.390625 32.140625 4 32 Z "/>
</g>
</svg>
