<?xml version="1.0" encoding="UTF-8"?>
<svg xmlns="http://www.w3.org/2000/svg" xmlns:xlink="http://www.w3.org/1999/xlink" width="48pt" height="48pt" viewBox="0 0 48 48" version="1.1">
<g id="surface1">
<path style=" stroke:none;fill-rule:nonzero;fill:#FFFFFF;fill-opacity:1;" d="M 24 4 C 12.976563 4 4 12.976563 4 24 C 4 35.023438 12.976563 44 24 44 C 35.023438 44 44 35.023438 44 24 C 44 12.976563 35.023438 4 24 4 Z M 24 8 C 32.859375 8 40 15.140625 40 24 C 40 32.859375 32.859375 40 24 40 C 15.140625 40 8 32.859375 8 24 C 8 15.140625 15.140625 8 24 8 Z M 24 10.75 C 20.351563 10.75 18 13.671875 18 17.25 L 18 20.0625 L 18.625 20.5625 C 19.585938 22.5625 21.59375 24 24 24 C 26.429688 24 28.5 22.546875 29.4375 20.5 L 30 20 L 30 17.25 C 30 14.875 29.101563 12.515625 26.125 11.9375 L 25.5 10.75 Z M 23.875 28 C 17.882813 28 14.554688 30.898438 13 32.875 C 15.570313 36.015625 19.507813 38 23.875 38 C 28.242188 38 32.117188 36.015625 34.6875 32.875 C 33.132813 30.898438 29.867188 28 23.875 28 Z "/>
</g>
</svg>
